<?xml version="1.0" encoding="utf-8"?>
<!-- Generator: Adobe Illustrator 26.3.1, SVG Export Plug-In . SVG Version: 6.00 Build 0)  -->
<svg version="1.1" id="Layer_1" xmlns="http://www.w3.org/2000/svg" xmlns:xlink="http://www.w3.org/1999/xlink" x="0px" y="0px"
	 viewBox="0 0 25 26" style="enable-background:new 0 0 25 26;" xml:space="preserve">
<style type="text/css">
	.st0{fill-rule:evenodd;clip-rule:evenodd;fill:#54C5CF;}
	.st1{fill-rule:evenodd;clip-rule:evenodd;fill:#EC1951;}
	.st2{fill-rule:evenodd;clip-rule:evenodd;fill:#6D6D70;}
</style>
<path class="st0" d="M9.6,1.8c3.1-0.4,6.3,0.2,8.6,2.1c4.2,3.3,4,9.2-0.4,13.1c-3.7,3.3-9.3,4.1-13.5,2.2c3.5,0.7,7.5-0.3,10.3-2.9
	c4.2-3.7,4.3-9.3,0.4-12.5C13.6,2.7,11.7,2,9.6,1.8"/>
<path class="st1" d="M4.6,9.1c2-6.1,8-9.8,14.2-8.9C13.6,0.6,8.9,4,7.2,9.2C5,16.1,8.8,23.4,15.6,25.6c0.7,0.2,1.5,0.4,2.2,0.5
	c-1.6,0.1-3.2-0.1-4.8-0.6C6.2,23.3,2.4,16,4.6,9.1"/>
<path class="st2" d="M10,18.8c-1.7-1.2-3-3.1-3.2-5.2c-0.5-3.8,2.3-6.8,6.3-6.9c3.4,0,6.5,2.2,7.6,5.2c-1.4-2-3.8-3.4-6.4-3.3
	c-3.7,0-6.4,3-6,6.5C8.5,16.5,9.1,17.8,10,18.8"/>
<path class="st0" d="M9.2,20.3c-1.7,0-3.3-0.3-4.8-1c1.4,0.3,2.8,0.3,4.3,0L9.2,20.3z"/>
</svg>
