<?xml version="1.0" encoding="UTF-8"?><svg id="Layer_1" xmlns="http://www.w3.org/2000/svg" xmlns:xlink="http://www.w3.org/1999/xlink" viewBox="0 0 535.5938 142.97001"><defs><style>.cls-1{fill:#4e4e4e;}.cls-2{fill:#349a46;}.cls-2,.cls-3{font-family:AdriannaExtended-Regular, 'Adrianna Extended';}.cls-3,.cls-4,.cls-5{fill:#016699;}.cls-4{letter-spacing:-.00001em;}.cls-4,.cls-5{font-family:AdriannaExtended-Light, 'Adrianna Extended';}.cls-5{letter-spacing:-.015em;}.cls-6{fill:url(#radial-gradient-6);}.cls-7{fill:url(#radial-gradient-5);}.cls-8{fill:url(#radial-gradient-3);}.cls-9{fill:url(#radial-gradient-4);}.cls-10{fill:url(#radial-gradient-8);}.cls-11{fill:url(#radial-gradient-7);}.cls-12{fill:url(#radial-gradient-2);}.cls-13{font-size:80.81512px;}.cls-14{fill:url(#radial-gradient);}</style><radialGradient id="radial-gradient" cx="105.97502" cy="42.20632" fx="105.97502" fy="42.20632" r="35.10077" gradientTransform="matrix(1, 0, 0, 1, 0, 0)" gradientUnits="userSpaceOnUse"><stop offset="0" stop-color="#016699"/><stop offset="1" stop-color="#003b5e"/></radialGradient><radialGradient id="radial-gradient-2" cx="60.7032" cy="64.86578" fx="60.7032" fy="64.86578" r="23.12893" xlink:href="#radial-gradient"/><radialGradient id="radial-gradient-3" cx="95.70141" cy="36.22616" fx="95.70141" fy="36.22616" r="30.30824" xlink:href="#radial-gradient"/><radialGradient id="radial-gradient-4" cx="46.59615" cy="64.86578" fx="46.59615" fy="64.86578" r="23.12893" xlink:href="#radial-gradient"/><radialGradient id="radial-gradient-5" cx="85.12112" cy="30.24599" fx="85.12112" fy="30.24599" r="25.40187" gradientTransform="matrix(1, 0, 0, 1, 0, 0)" gradientUnits="userSpaceOnUse"><stop offset="0" stop-color="#349a46"/><stop offset="1" stop-color="#0f6027"/></radialGradient><radialGradient id="radial-gradient-6" cx="32.48909" cy="64.86578" fx="32.48909" fy="64.86578" r="23.12893" xlink:href="#radial-gradient-5"/><radialGradient id="radial-gradient-7" cx="74.71446" cy="24.11543" fx="74.71446" fy="24.11543" r="20.45975" xlink:href="#radial-gradient"/><radialGradient id="radial-gradient-8" cx="18.68872" cy="64.86578" fx="18.68872" fy="64.86578" r="23.12893" xlink:href="#radial-gradient"/></defs><path class="cls-1" d="M531.67464,123.09559c.29298,0,.6275,.01782,1.00488,.0548,.37768,.03609,.74917,.08484,1.11447,.14642,.36545,.06083,.69997,.12093,1.00503,.18206,.30447,.06069,.5294,.11622,.67596,.16483l-.58434,2.95866c-.26882-.09722-.71293-.21285-1.33409-.34674-.62102-.13419-1.41879-.20062-2.39288-.20062-.6328,0-1.26015,.06643-1.8819,.20062-.62116,.1339-1.0283,.22566-1.22332,.27412v15.96567h-3.39776v-18.19432c.80367-.2921,1.80177-.56651,2.99563-.82223,1.19298-.25586,2.53311-.38327,4.01834-.38327m-15.45366,8.07379c.0246-1.53442-.35912-2.79457-1.15071-3.78089-.79233-.98661-1.88205-1.47992-3.2702-1.47992-.77892,0-1.46799,.15201-2.06382,.45633-.5973,.30432-1.10269,.70056-1.5166,1.18768-.41391,.48771-.73679,1.0473-.96805,1.68084-.23185,.63354-.38386,1.2793-.45707,1.93596h9.42645Zm-13.04325,1.86349c0-1.68069,.24363-3.14765,.73075-4.40235,.48697-1.2544,1.13274-2.29581,1.93596-3.12349,.80381-.82827,1.73018-1.44958,2.77675-1.86334,1.04745-.41391,2.1192-.62131,3.21511-.62131,2.55727,0,4.51857,.79763,5.88286,2.39318,1.364,1.59526,2.04526,4.02452,2.04526,7.28898v.56578c0,.23185-.01164,.44455-.03697,.63943h-13.00598c.14627,1.97249,.71897,3.47068,1.71781,4.49397,.99796,1.02285,2.55712,1.53442,4.67559,1.53442,1.19328,0,2.19889-.10326,3.01434-.31066,.81619-.20651,1.43116-.40831,1.84567-.6026l.47401,2.84996c-.41391,.21889-1.13833,.45015-2.17326,.69363-1.03581,.24378-2.21038,.36604-3.52518,.36604-1.65697,0-3.08814-.25026-4.29349-.74976-1.20535-.49861-2.19786-1.18768-2.97796-2.06396-.77922-.87702-1.35722-1.91814-1.73534-3.12349-.37709-1.20609-.56593-2.52707-.56593-3.96443Zm-19.9108-8.98764c.77936-.19502,1.8137-.40154,3.10508-.62043,1.29035-.21962,2.77675-.32921,4.457-.32921,1.50982,0,2.76379,.21285,3.76262,.63899,.99869,.42702,1.79647,1.02285,2.39288,1.79102,.5973,.76699,1.01666,1.6857,1.26103,2.75819,.24349,1.07131,.36501,2.25295,.36501,3.543v10.66863h-3.39776v-9.93728c0-1.16912-.07939-2.16796-.23745-2.99578-.15879-.82841-.42054-1.49819-.78525-2.00976-.36545-.51098-.85316-.88336-1.4621-1.11373-.60879-.232-1.36252-.34763-2.2637-.34763-.36516,0-.74357,.01237-1.13347,.03624-.38931,.0246-.7608,.05553-1.11359,.09177-.35308,.03638-.66992,.07866-.95038,.12786-.27972,.04876-.48093,.08499-.6026,.10959v16.03873h-3.39732v-18.45018Zm-11.50927-.5481h7.19736v2.84996h-7.19736v8.76816c0,.95023,.07306,1.73549,.21962,2.35665,.14627,.62116,.3653,1.10828,.6574,1.46136,.29195,.35308,.65814,.60334,1.09591,.74902,.43851,.14583,.95008,.21962,1.53516,.21962,1.0227,0,1.84493-.11622,2.4655-.34748,.62116-.23126,1.05334-.39609,1.29712-.49331l.6574,2.81372c-.3407,.17043-.938,.38327-1.78969,.63913-.85242,.25571-1.82725,.38372-2.92316,.38372-1.29079,0-2.3568-.16483-3.19699-.49331-.83976-.32892-1.51571-.82223-2.02743-1.47963-.51113-.6574-.87098-1.46755-1.07823-2.42927-.20666-.96246-.31066-2.07693-.31066-3.34326v-16.95199l3.39806-.58493v5.88183Zm-10.2665-.40154c.29298,0,.6275,.01782,1.00517,.0548,.37753,.03609,.74887,.08484,1.11432,.14642,.3653,.06083,.69982,.12093,1.00414,.18206,.30462,.06069,.53028,.11622,.6767,.16483l-.58419,2.95866c-.26882-.09722-.71293-.21285-1.33395-.34674-.6219-.13419-1.41894-.20062-2.39303-.20062-.63354,0-1.26,.06643-1.8819,.20062-.62131,.1339-1.02889,.22566-1.22391,.27412v15.96567h-3.39717v-18.19432c.80381-.2921,1.80177-.56651,2.99563-.82223,1.19298-.25586,2.53311-.38327,4.01819-.38327Zm-19.94763-.07321c1.36414,0,2.51485,.17647,3.45212,.53028,.93859,.35278,1.69306,.85169,2.26562,1.49745,.57196,.64517,.98043,1.4126,1.22391,2.30185,.24422,.88881,.3653,1.86923,.3653,2.94113v11.87398c-.29224,.04787-.69982,.11563-1.22377,.20033-.5235,.08543-1.11447,.16483-1.77187,.23745-.6574,.07394-1.37033,.14023-2.13776,.2018-.76699,.0601-1.52765,.09103-2.283,.09103-1.07175,0-2.05837-.10959-2.95925-.32921-.90162-.21889-1.68098-.56563-2.33838-1.04111-.65814-.47475-1.16897-1.10195-1.53442-1.88117-.3653-.7801-.5481-1.71722-.5481-2.81387,0-1.04656,.21358-1.94819,.63913-2.70369,.42687-.75432,1.00488-1.36326,1.73549-1.82637,.73075-.46237,1.58303-.80381,2.55712-1.0227,.97498-.21962,1.99753-.32907,3.06958-.32907,.3407,0,.69437,.01841,1.05967,.05465,.36471,.03638,.71219,.08484,1.04111,.14642,.32848,.06083,.61453,.11489,.85802,.16409,.24422,.04876,.41391,.08573,.51157,.11033v-.95038c0-.56018-.06083-1.11418-.1825-1.66301-.12182-.54707-.3407-1.03434-.6574-1.46062-.31684-.42658-.74858-.76743-1.29712-1.02329-.5481-.25571-1.26074-.38372-2.13702-.38372-1.1208,0-2.10108,.07925-2.94158,.23804-.8402,.15805-1.46769,.32214-1.88146,.49331l-.40169-2.81372c.43851-.19502,1.16927-.38372,2.19211-.56578,1.02255-.18339,2.13099-.27442,3.32456-.27442Zm.29283,17.02535c.80308,0,1.51601-.01782,2.13658-.0548,.6219-.03697,1.13877-.10326,1.55269-.20062v-5.66368c-.24275-.12152-.63958-.22493-1.18738-.31021-.54737-.08499-1.21169-.12815-1.99076-.12815-.51113,0-1.05364,.03712-1.62619,.10944-.57196,.07394-1.09591,.22566-1.5708,.45707-.47475,.23126-.87069,.54869-1.18753,.95023-.31669,.40228-.47475,.93182-.47475,1.58922,0,1.21817,.38931,2.06455,1.16927,2.5393,.77907,.47475,1.83874,.71219,3.17888,.71219Zm-20.71653-20.02098c-1.50938,0-2.66671,.03624-3.47068,.10959v9.93714h2.66745c1.21758,0,2.31378-.07866,3.28773-.23745,.97483-.15805,1.79662-.42614,2.46698-.80381,.66904-.37753,1.18694-.8947,1.55224-1.5521,.36516-.65814,.54781-1.49819,.54781-2.52162,0-.97365-.18869-1.77806-.56637-2.41144-.37768-.6328-.88925-1.13848-1.53368-1.51616-.64576-.37738-1.39493-.63884-2.24735-.78525-.85242-.14627-1.75405-.21889-2.70413-.21889Zm-.29151-3.10582c3.55611,0,6.2897,.67581,8.2018,2.02773,1.9118,1.35177,2.86748,3.36786,2.86748,6.04665,0,1.46136-.26175,2.70973-.78525,3.7448-.52321,1.03508-1.27856,1.87527-2.26488,2.52104-.98661,.64576-2.18578,1.11432-3.59839,1.40657-1.41349,.29268-3.00801,.43851-4.78665,.43851h-2.81328v9.38918h-3.54344v-24.95317c.99884-.24378,2.11228-.40787,3.34238-.49331,1.23084-.08499,2.35665-.128,3.38023-.128Zm-24.62572-2.19182l3.39806-.58419v27.80253c-.77936,.21962-1.77791,.43851-2.99578,.6574-1.21817,.21962-2.61869,.32966-4.20158,.32966-1.4621,0-2.77689-.23185-3.94616-.69422-1.16897-.46311-2.16781-1.12051-2.99549-1.97293-.82841-.85316-1.46755-1.89427-1.91828-3.12437-.45088-1.22936-.67581-2.61192-.67581-4.14634,0-1.46136,.18884-2.80149,.56578-4.01907,.37812-1.21773,.93182-2.26518,1.66301-3.14205,.72972-.87702,1.62545-1.55917,2.68513-2.0457,1.05967-.48771,2.27121-.7312,3.63447-.7312,1.09665,0,2.0647,.14656,2.90475,.43851,.84079,.29268,1.46799,.5727,1.8819,.84079v-9.6088Zm0,12.7865c-.41391-.33997-1.01092-.66904-1.79028-.98588-.77922-.31655-1.63208-.47475-2.55712-.47475-.97409,0-1.80884,.17647-2.50321,.52954-.69349,.35308-1.26,.84005-1.69851,1.46136-.43851,.6216-.75535,1.35796-.95038,2.21038-.19429,.85213-.29195,1.76553-.29195,2.74036,0,2.21598,.54854,3.92745,1.64401,5.13266,1.09665,1.20624,2.55757,1.80884,4.38438,1.80884,.92548,0,1.6991-.04301,2.31968-.12786,.62116-.0847,1.1021-.17647,1.44339-.27368v-12.02099Zm-20.71535,3.65377c.0246-1.53442-.35912-2.79457-1.15115-3.78089-.79159-.98661-1.88146-1.47992-3.26932-1.47992-.77936,0-1.46814,.15201-2.0647,.45633s-1.1021,.70056-1.51601,1.18768c-.41435,.48771-.73665,1.0473-.96805,1.68084-.23185,.63354-.38372,1.2793-.45678,1.93596h9.42601Zm-13.04295,1.86349c0-1.68069,.24349-3.14765,.73046-4.40235,.48727-1.2544,1.13318-2.29581,1.93626-3.12349,.80367-.82827,1.72989-1.44958,2.7766-1.86334,1.04745-.41391,2.1195-.62131,3.21541-.62131,2.55712,0,4.51842,.79763,5.88256,2.39318,1.36414,1.59526,2.04555,4.02452,2.04555,7.28898v.56578c0,.23185-.01237,.44455-.03697,.63943h-13.00613c.14627,1.97249,.71897,3.47068,1.71766,4.49397,.9981,1.02285,2.55712,1.53442,4.67588,1.53442,1.19313,0,2.19874-.10326,3.01419-.31066,.81604-.20651,1.43116-.40831,1.84508-.6026l.47475,2.84996c-.41391,.21889-1.13848,.45015-2.17356,.69363-1.03552,.24378-2.21038,.36604-3.52591,.36604-1.65594,0-3.08711-.25026-4.29261-.74976-1.2055-.49861-2.19801-1.18768-2.97781-2.06396-.77936-.87702-1.35737-1.91814-1.73578-3.12349-.37694-1.20609-.56563-2.52707-.56563-3.96443Zm-10.08414-9.53574h7.19736v2.84996h-7.19736v8.76816c0,.95023,.07306,1.73549,.21933,2.35665,.14642,.62116,.3653,1.10828,.65755,1.46136,.2921,.35308,.65814,.60334,1.09591,.74902,.43851,.14583,.95023,.21962,1.53516,.21962,1.02255,0,1.84508-.11622,2.4655-.34748,.62116-.23126,1.05349-.39609,1.29697-.49331l.65814,2.81372c-.34129,.17043-.93859,.38327-1.79028,.63913-.85242,.25571-1.82711,.38372-2.92331,.38372-1.29093,0-2.35591-.16483-3.1967-.49331-.84005-.32892-1.51586-.82223-2.02773-1.47963-.51084-.6574-.87069-1.46755-1.07735-2.42927-.20725-.96246-.31124-2.07693-.31124-3.34326v-16.95199l3.39806-.58493v5.88183Zm-15.05241,16.5506c1.38786,0,2.41689-.18265,3.08667-.5481,.67036-.36516,1.00488-.95008,1.00488-1.75405,0-.82782-.32907-1.48522-.98647-1.97293-.6574-.48624-1.74108-1.03434-3.25164-1.64401-.73046-.29195-1.43102-.59023-2.10079-.89455-.66962-.30462-1.24837-.66373-1.73549-1.07823-.48653-.41391-.87643-.91326-1.16927-1.49833-.29195-.58404-.43777-1.30242-.43777-2.15485,0-1.68069,.62116-3.01405,1.8629-4.0014,1.24218-.98558,2.93465-1.47889,5.07875-1.47889,.53573,0,1.07116,.03093,1.60704,.09103,.53617,.06083,1.03552,.13463,1.49819,.21962,.46311,.0847,.87069,.17647,1.2245,.27368,.35278,.09766,.62647,.18309,.82149,.25586l-.62116,2.92302c-.36545-.19502-.93786-.39609-1.71707-.6026-.77907-.20799-1.71707-.31066-2.81298-.31066-.95023,0-1.77806,.18825-2.48465,.56651-.70615,.37694-1.05894,.96717-1.05894,1.77113,0,.4145,.07866,.77922,.23715,1.09665,.1582,.31655,.40169,.6026,.73016,.85861,.32892,.25512,.73679,.49228,1.2245,.7119,.48697,.21962,1.07131,.45088,1.75405,.69467,.90015,.34041,1.70396,.67566,2.41071,1.00488,.70615,.32818,1.30876,.7119,1.8081,1.15071,.4992,.43851,.88321,.9685,1.15129,1.58892,.26823,.62116,.40169,1.38256,.40169,2.28359,0,1.75346-.65136,3.08136-1.95467,3.98225-1.30242,.90162-3.15973,1.35236-5.57117,1.35236-1.68098,0-2.99578-.14082-3.94587-.42054-.95038-.28075-1.5954-.49331-1.9367-.63913l.62116-2.92302c.38976,.14627,1.01092,.36516,1.86334,.6574,.85242,.29268,1.98531,.43851,3.39806,.43851Zm-10.26723,1.89972c-.77892,.19488-1.80781,.40213-3.08637,.62102-1.27856,.21962-2.75848,.32921-4.43917,.32921-1.46121,0-2.69131-.21344-3.6903-.63958-.99854-.42614-1.80251-1.02904-2.4113-1.8081-.60879-.77995-1.0473-1.69881-1.31553-2.75848-.2675-1.05967-.40213-2.23498-.40213-3.52562v-10.66877h3.39776v9.93728c0,2.31437,.36619,3.9712,1.09665,4.9693,.73002,.99884,1.96056,1.49819,3.69001,1.49819,.36545,0,.74313-.01223,1.13229-.03682,.38976-.02401,.75521-.0548,1.09665-.09103,.34056-.03697,.65121-.0738,.93167-.10959,.27987-.03697,.48093-.0791,.60201-.12786v-16.03947h3.39776v18.45032Zm-22.21251-18.85186c.2921,0,.6272,.01782,1.00414,.0548,.37782,.03609,.74917,.08484,1.11432,.14642,.3653,.06083,.70056,.12093,1.00517,.18206,.30432,.06069,.52954,.11622,.67566,.16483l-.58419,2.95866c-.26809-.09722-.71264-.21285-1.33395-.34674-.62116-.13419-1.41879-.20062-2.39303-.20062-.6328,0-1.26,.06643-1.8819,.20062-.62057,.1339-1.02815,.22566-1.22318,.27412v15.96567h-3.39791v-18.19432c.80381-.2921,1.80207-.56651,2.99563-.82223,1.19313-.25586,2.53326-.38327,4.01922-.38327Zm-9.061-5.9188v3.06884h-7.96494v22.24977h-3.54388v-22.24977h-7.96435v-3.06884h19.47317Zm-41.3217,2.84996c-1.50982,0-2.66671,.03624-3.47068,.10959v9.5356h2.52104c1.21773,0,2.31364-.06098,3.28847-.18339,.97424-.12123,1.79647-.35308,2.46536-.69363,.66977-.3407,1.18768-.82179,1.55313-1.44295,.3653-.6216,.54781-1.44339,.54781-2.46668,0-.94964-.1825-1.74094-.54781-2.37403-.36545-.63398-.85876-1.13347-1.47963-1.49789-.62131-.36545-1.35206-.62131-2.19211-.76773-.84064-.14627-1.73549-.21889-2.68557-.21889Zm5.3707,11.87398c.3899,.48697,.88247,1.1267,1.47977,1.9177,.59671,.79203,1.21228,1.66832,1.84508,2.63018,.63354,.96246,1.26,1.96675,1.8819,3.01405,.62057,1.04819,1.15071,2.05866,1.58922,3.03275h-3.87339c-.48697-.9249-1.01652-1.86349-1.58922-2.81313-.57196-.94935-1.15071-1.8573-1.73549-2.72195-.58419-.8648-1.16293-1.67391-1.7349-2.42927-.5727-.75521-1.08987-1.4126-1.55298-1.97293-.31669,.02386-.63958,.03682-.96805,.03682h-4.18331v9.90046h-3.54433v-24.95317c.99899-.24378,2.11316-.40787,3.34326-.49331,1.2301-.08499,2.35621-.128,3.3795-.128,3.55611,0,6.26584,.67051,8.12918,2.00917,1.86275,1.3394,2.79457,3.33722,2.79457,5.99215,0,1.6801-.44396,3.11804-1.33336,4.31117-.88851,1.19372-2.19801,2.08223-3.92745,2.6673Zm-22.21324-14.72394h3.54418v25.31862h-3.54418v-11.69133h-12.38511v11.69133h-3.54433v-25.31862h3.54433v10.55918h12.38511v-10.55918Zm-31.67607,5.9188c.29268,0,.6272,.01782,1.00414,.0548,.37841,.03609,.7499,.08484,1.11521,.14642,.36516,.06083,.69982,.12093,1.00414,.18206,.30432,.06069,.53028,.11622,.67611,.16483l-.58434,2.95866c-.26809-.09722-.71219-.21285-1.33336-.34674-.6219-.13419-1.41953-.20062-2.39362-.20062-.6328,0-1.26015,.06643-1.88146,.20062-.62087,.1339-1.02874,.22566-1.22377,.27412v15.96567h-3.39732v-18.19432c.80396-.2921,1.80207-.56651,2.99578-.82223,1.19313-.25586,2.53326-.38327,4.01848-.38327Zm-12.86059,18.85186c-.77907,.19488-1.80781,.40213-3.08652,.62102-1.27856,.21962-2.75907,.32921-4.43903,.32921-1.4621,0-2.69146-.21344-3.6903-.63958-.99869-.42614-1.80324-1.02904-2.41189-1.8081-.60894-.77995-1.04671-1.69881-1.31509-2.75848-.26809-1.05967-.40198-2.23498-.40198-3.52562v-10.66877h3.39776v9.93728c0,2.31437,.36604,3.9712,1.09591,4.9693,.73075,.99884,1.9613,1.49819,3.69074,1.49819,.3653,0,.74298-.01223,1.13229-.03682,.38976-.02401,.75521-.0548,1.09591-.09103,.34129-.03697,.6518-.0738,.93152-.10959,.28002-.03697,.48167-.0791,.6029-.12786v-16.03947h3.39776v18.45032Zm-23.45498-8.95082c0-2.1441-.48093-3.84261-1.44339-5.09731-.96201-1.25396-2.27121-1.88117-3.92745-1.88117-1.65639,0-2.96485,.6272-3.9276,1.88117-.96172,1.2547-1.44265,2.95321-1.44265,5.09731,0,2.14321,.48093,3.84172,1.44265,5.09642,.96275,1.25411,2.27121,1.88131,3.9276,1.88131,1.65624,0,2.96544-.6272,3.92745-1.88131,.96246-1.2547,1.44339-2.95321,1.44339-5.09642Zm3.54359,0c0,1.50982-.21962,2.87382-.6574,4.09155-.43851,1.21787-1.05349,2.26518-1.84508,3.1422s-1.73549,1.55283-2.8314,2.02773c-1.09606,.47475-2.28977,.7119-3.58056,.7119-1.29093,0-2.48421-.23715-3.58071-.7119-1.09591-.47489-2.03981-1.15071-2.83066-2.02773-.79233-.87702-1.4073-1.92432-1.84581-3.1422-.43851-1.21773-.6574-2.58172-.6574-4.09155,0-1.48596,.21889-2.84392,.6574-4.07372,.43851-1.2301,1.05349-2.28359,1.84581-3.15987,.79085-.87776,1.73475-1.55298,2.83066-2.02846,1.0965-.4746,2.28977-.71219,3.58071-.71219,1.29079,0,2.4845,.23759,3.58056,.71219,1.09591,.47548,2.03981,1.15071,2.8314,2.02846,.79159,.87629,1.40657,1.92977,1.84508,3.15987,.43777,1.22981,.6574,2.58776,.6574,4.07372Zm-30.58002,9.49877v-10.15617c-1.6801-2.60647-3.26298-5.1767-4.74968-7.70982-1.48596-2.53252-2.88634-5.01732-4.20187-7.45263h4.16564c.92563,1.99753,1.96071,4.02452,3.10582,6.08318,1.14364,2.05822,2.32601,4.03675,3.54359,5.93706,1.19313-1.90031,2.3621-3.87884,3.5075-5.93706,1.14511-2.05866,2.19182-4.08565,3.1419-6.08318h3.94587c-1.31553,2.43531-2.7165,4.91377-4.20158,7.43481-1.48596,2.52104-3.05662,5.07197-4.71286,7.65443v10.22938h-3.54433Z"/><g><polygon class="cls-14" points="132.1046 0 83.42181 84.41264 79.84544 79.02863 125.35775 0 132.1046 0"/><polygon class="cls-12" points="42.01448 38.09979 72.36397 91.71026 79.39191 91.71026 48.73333 38.02129 42.01448 38.09979"/></g><g><polygon class="cls-8" points="118.6109 0 76.36828 72.45231 72.79191 67.0683 111.86405 0 118.6109 0"/><polygon class="cls-9" points="27.90743 38.09979 58.25692 91.71026 65.28486 91.71026 34.62628 38.02129 27.90743 38.09979"/></g><g><polygon class="cls-7" points="104.50385 0 69.31476 60.49199 65.73839 55.10797 97.757 0 104.50385 0"/><polygon class="cls-6" points="13.80038 38.09979 44.14987 91.71026 51.17781 91.71026 20.51923 38.02129 13.80038 38.09979"/></g><g><polygon class="cls-11" points="90.70347 0 62.30181 48.23087 58.72544 42.84685 83.95662 0 90.70347 0"/><polygon class="cls-10" points="0 38.09979 30.34949 91.71026 37.37743 91.71026 6.71885 38.02129 0 38.09979"/></g><text class="cls-13" transform="translate(127.9669 91.71206)"><tspan class="cls-3" x="0" y="0">HR-</tspan><tspan class="cls-2" x="160.0127" y="0">T</tspan><tspan class="cls-5" x="224.74512" y="0">r</tspan><tspan class="cls-4" x="265.07129" y="0">ust</tspan></text></svg>